<svg xmlns="http://www.w3.org/2000/svg" width="800" height="300" viewBox="0 0 800 300">
<defs>
<path id="p0" d="M 20,150 L 63,150 L 106,150 L 149,150 L 192,150 L 235,150 L 278,150 L 321,150 L 364,150 L 407,150 L 367,150 L 327,150 L 287,150 L 248,150 L 208,150 L 168,150 L 128,150 L 88,150 L 48,150 L 90,150 L 131,150 L 172,150 L 214,150 L 255,150 L 297,150 L 338,150 L 380,150 L 421,150 L 383,150 L 344,150 L 306,150 L 268,150 L 230,150 L 191,150 L 153,150 L 115,150 L 76,150 L 116,150 L 156,150 L 196,150 L 236,150 L 276,150 L 316,150 L 355,150 L 395,150 L 435,150 L 398,150 L 362,150 L 325,150 L 288,150 L 251,150 L 215,150 L 178,150 L 141,150 L 104,150 L 143,150 L 181,150 L 219,150 L 258,150 L 296,150 L 334,150 L 373,150 L 411,150 L 449,150 L 414,150 L 379,150 L 344,150 L 309,150 L 273,150 L 238,150 L 203,150 L 168,150 L 133,150 L 169,150 L 206,150 L 243,150 L 280,150 L 316,150 L 353,150 L 390,150 L 427,150 L 463,150 L 430,150 L 396,150 L 362,150 L 329,150 L 295,150 L 262,150 L 228,150 L 194,150 L 161,150 L 196,150 L 231,150 L 266,150 L 301,150 L 337,150 L 372,150 L 407,150 L 442,150 L 477,150 L 445,150 L 413,150 L 381,150 L 349,150 L 317,150 L 285,150 L 253,150 L 221,150 L 189,150 L 223,150 L 256,150 L 290,150 L 323,150 L 357,150 L 391,150 L 424,150 L 458,150 L 491,150 L 461,150 L 430,150 L 400,150 L 370,150 L 339,150 L 309,150 L 278,150 L 248,150 L 217,150 L 249,150 L 281,150 L 313,150 L 345,150 L 377,150 L 409,150 L 441,150 L 473,150 L 506,150 L 477,150 L 448,150 L 419,150 L 390,150 L 361,150 L 332,150 L 303,150 L 274,150 L 245,150 L 276,150 L 306,150 L 337,150 L 367,150 L 398,150 L 428,150 L 459,150 L 489,150 L 520,150 L 492,150 L 465,150 L 438,150 L 410,150 L 383,150 L 355,150 L 328,150 L 301,150 L 273,150 L 302,150 L 331,150 L 360,150 L 389,150 L 418,150 L 447,150 L 476,150 L 505,150 L 534,150 L 258,150 L 456,150 L 219,150 L 379,150 L 560,150 L 301,150 L 329,150 L 356,150 L 384,150 L 411,150 L 438,150 L 466,150 L 493,150 L 520,150 L 548,150 L 266,150 L 475,150 L 229,150 L 402,150 L 573,150 L 330,150 L 574,150 L 407,150 L 233,150 L 484,150 L 272,150 L 562,150 L 274,150 L 494,150 L 240,150 L 426,150 L 586,150 L 358,150 L 587,150 L 430,150 L 243,150 L 503,150 L 280,150 L 576,150 L 282,150 L 513,150 L 250,150 L 449,150 L 219,150 L 386,150 L 220,150 L 454,150 L 254,150 L 522,150 L 288,150 L 590,150 L 290,150 L 531,150 L 261,150 L 473,150 L 232,150 L 414,150 L 581,150 L 351,150 L 550,150 L 287,150 L 518,150 L 224,150 L 520,150 L 297,150 L 557,150 L 370,150 L 213,150 L 442,150 L 214,150 L 374,150 L 560,150 L 306,150 L 526,150 L 238,150 L 528,150 L 316,150 L 567,150 L 393,150 L 226,150 L 470,150 L 227,150 L 398,150 L 571,150 L 325,150 L 534,150 L 252,150 L 280,150 L 307,150 L 334,150 L 362,150 L 389,150 L 416,150 L 444,150 L 471,150 L 499,150 L 240,150 L 421,150 L 581,150 L 344,150 L 542,150 L 266,150 L 295,150 L 324,150 L 353,150 L 382,150 L 411,150 L 440,150 L 469,150 L 498,150 L 527,150 L 499,150 L 472,150 L 445,150 L 417,150 L 390,150 L 362,150 L 335,150 L 308,150 L 280,150 L 311,150 L 341,150 L 372,150 L 402,150 L 433,150 L 463,150 L 494,150 L 524,150 L 555,150 L 526,150 L 497,150 L 468,150 L 439,150 L 410,150 L 381,150 L 352,150 L 323,150 L 294,150 L 327,150 L 359,150 L 391,150 L 423,150 L 455,150 L 487,150 L 519,150 L 551,150 L 583,150 L 552,150 L 522,150 L 491,150 L 461,150 L 430,150 L 400,150 L 370,150 L 339,150 L 309,150 L 342,150 L 376,150 L 409,150 L 443,150 L 477,150 L 510,150 L 544,150 L 577,150 L 611,150 L 579,150 L 547,150 L 515,150 L 483,150 L 451,150 L 419,150 L 387,150 L 355,150 L 323,150 L 358,150 L 393,150 L 428,150 L 463,150 L 499,150 L 534,150 L 569,150 L 604,150 L 639,150 L 606,150 L 572,150 L 538,150 L 505,150 L 471,150 L 438,150 L 404,150 L 370,150 L 337,150 L 373,150 L 410,150 L 447,150 L 484,150 L 520,150 L 557,150 L 594,150 L 631,150 L 667,150 L 632,150 L 597,150 L 562,150 L 527,150 L 491,150 L 456,150 L 421,150 L 386,150 L 351,150 L 389,150 L 427,150 L 466,150 L 504,150 L 542,150 L 581,150 L 619,150 L 657,150 L 696,150 L 659,150 L 622,150 L 585,150 L 549,150 L 512,150 L 475,150 L 438,150 L 402,150 L 365,150 L 405,150 L 445,150 L 484,150 L 524,150 L 564,150 L 604,150 L 644,150 L 684,150 L 724,150 L 685,150 L 647,150 L 609,150 L 570,150 L 532,150 L 494,150 L 456,150 L 417,150 L 379,150 L 420,150 L 462,150 L 503,150 L 545,150 L 586,150 L 628,150 L 669,150 L 710,150 L 752,150 L 712,150 L 672,150 L 632,150 L 592,150 L 552,150 L 513,150 L 473,150 L 433,150 L 393,150 L 436,150 L 479,150 L 522,150 L 565,150 L 608,150 L 651,150 L 694,150 L 737,150 L 780,150" fill="none" stroke="#ccc" stroke-width="1"/>
</defs>
<path d="M 20,150 L 63,150 L 106,150 L 149,150 L 192,150 L 235,150 L 278,150 L 321,150 L 364,150 L 407,150 L 367,150 L 327,150 L 287,150 L 248,150 L 208,150 L 168,150 L 128,150 L 88,150 L 48,150 L 90,150 L 131,150 L 172,150 L 214,150 L 255,150 L 297,150 L 338,150 L 380,150 L 421,150 L 383,150 L 344,150 L 306,150 L 268,150 L 230,150 L 191,150 L 153,150 L 115,150 L 76,150 L 116,150 L 156,150 L 196,150 L 236,150 L 276,150 L 316,150 L 355,150 L 395,150 L 435,150 L 398,150 L 362,150 L 325,150 L 288,150 L 251,150 L 215,150 L 178,150 L 141,150 L 104,150 L 143,150 L 181,150 L 219,150 L 258,150 L 296,150 L 334,150 L 373,150 L 411,150 L 449,150 L 414,150 L 379,150 L 344,150 L 309,150 L 273,150 L 238,150 L 203,150 L 168,150 L 133,150 L 169,150 L 206,150 L 243,150 L 280,150 L 316,150 L 353,150 L 390,150 L 427,150 L 463,150 L 430,150 L 396,150 L 362,150 L 329,150 L 295,150 L 262,150 L 228,150 L 194,150 L 161,150 L 196,150 L 231,150 L 266,150 L 301,150 L 337,150 L 372,150 L 407,150 L 442,150 L 477,150 L 445,150 L 413,150 L 381,150 L 349,150 L 317,150 L 285,150 L 253,150 L 221,150 L 189,150 L 223,150 L 256,150 L 290,150 L 323,150 L 357,150 L 391,150 L 424,150 L 458,150 L 491,150 L 461,150 L 430,150 L 400,150 L 370,150 L 339,150 L 309,150 L 278,150 L 248,150 L 217,150 L 249,150 L 281,150 L 313,150 L 345,150 L 377,150 L 409,150 L 441,150 L 473,150 L 506,150 L 477,150 L 448,150 L 419,150 L 390,150 L 361,150 L 332,150 L 303,150 L 274,150 L 245,150 L 276,150 L 306,150 L 337,150 L 367,150 L 398,150 L 428,150 L 459,150 L 489,150 L 520,150 L 492,150 L 465,150 L 438,150 L 410,150 L 383,150 L 355,150 L 328,150 L 301,150 L 273,150 L 302,150 L 331,150 L 360,150 L 389,150 L 418,150 L 447,150 L 476,150 L 505,150 L 534,150 L 258,150 L 456,150 L 219,150 L 379,150 L 560,150 L 301,150 L 329,150 L 356,150 L 384,150 L 411,150 L 438,150 L 466,150 L 493,150 L 520,150 L 548,150 L 266,150 L 475,150 L 229,150 L 402,150 L 573,150 L 330,150 L 574,150 L 407,150 L 233,150 L 484,150 L 272,150 L 562,150 L 274,150 L 494,150 L 240,150 L 426,150 L 586,150 L 358,150 L 587,150 L 430,150 L 243,150 L 503,150 L 280,150 L 576,150 L 282,150 L 513,150 L 250,150 L 449,150 L 219,150 L 386,150 L 220,150 L 454,150 L 254,150 L 522,150 L 288,150 L 590,150 L 290,150 L 531,150 L 261,150 L 473,150 L 232,150 L 414,150 L 581,150 L 351,150 L 550,150 L 287,150 L 518,150 L 224,150 L 520,150 L 297,150 L 557,150 L 370,150 L 213,150 L 442,150 L 214,150 L 374,150 L 560,150 L 306,150 L 526,150 L 238,150 L 528,150 L 316,150 L 567,150 L 393,150 L 226,150 L 470,150 L 227,150 L 398,150 L 571,150 L 325,150 L 534,150 L 252,150 L 280,150 L 307,150 L 334,150 L 362,150 L 389,150 L 416,150 L 444,150 L 471,150 L 499,150 L 240,150 L 421,150 L 581,150 L 344,150 L 542,150 L 266,150 L 295,150 L 324,150 L 353,150 L 382,150 L 411,150 L 440,150 L 469,150 L 498,150 L 527,150 L 499,150 L 472,150 L 445,150 L 417,150 L 390,150 L 362,150 L 335,150 L 308,150 L 280,150 L 311,150 L 341,150 L 372,150 L 402,150 L 433,150 L 463,150 L 494,150 L 524,150 L 555,150 L 526,150 L 497,150 L 468,150 L 439,150 L 410,150 L 381,150 L 352,150 L 323,150 L 294,150 L 327,150 L 359,150 L 391,150 L 423,150 L 455,150 L 487,150 L 519,150 L 551,150 L 583,150 L 552,150 L 522,150 L 491,150 L 461,150 L 430,150 L 400,150 L 370,150 L 339,150 L 309,150 L 342,150 L 376,150 L 409,150 L 443,150 L 477,150 L 510,150 L 544,150 L 577,150 L 611,150 L 579,150 L 547,150 L 515,150 L 483,150 L 451,150 L 419,150 L 387,150 L 355,150 L 323,150 L 358,150 L 393,150 L 428,150 L 463,150 L 499,150 L 534,150 L 569,150 L 604,150 L 639,150 L 606,150 L 572,150 L 538,150 L 505,150 L 471,150 L 438,150 L 404,150 L 370,150 L 337,150 L 373,150 L 410,150 L 447,150 L 484,150 L 520,150 L 557,150 L 594,150 L 631,150 L 667,150 L 632,150 L 597,150 L 562,150 L 527,150 L 491,150 L 456,150 L 421,150 L 386,150 L 351,150 L 389,150 L 427,150 L 466,150 L 504,150 L 542,150 L 581,150 L 619,150 L 657,150 L 696,150 L 659,150 L 622,150 L 585,150 L 549,150 L 512,150 L 475,150 L 438,150 L 402,150 L 365,150 L 405,150 L 445,150 L 484,150 L 524,150 L 564,150 L 604,150 L 644,150 L 684,150 L 724,150 L 685,150 L 647,150 L 609,150 L 570,150 L 532,150 L 494,150 L 456,150 L 417,150 L 379,150 L 420,150 L 462,150 L 503,150 L 545,150 L 586,150 L 628,150 L 669,150 L 710,150 L 752,150 L 712,150 L 672,150 L 632,150 L 592,150 L 552,150 L 513,150 L 473,150 L 433,150 L 393,150 L 436,150 L 479,150 L 522,150 L 565,150 L 608,150 L 651,150 L 694,150 L 737,150 L 780,150" fill="none" stroke="#e0e0e0" stroke-width="1"/>
<text font-family="sans-serif" font-size="14.0px" letter-spacing="0.5px">
  <textPath href="#p0" startOffset="0.0">Compression methods reduce redundancy. Our ATC scheme encodes letters in carriers and uses style bytes for spacing, punctuation, and capitalization. Range coding these styles cuts entropy to under 4 bits per character.</textPath>
</text>
</svg>